<svg width="72" height="72" viewBox="0 0 72 72" fill="none" xmlns="http://www.w3.org/2000/svg">
<path d="M13 72H59C66.18 72 72 66.18 72 59V13C72 5.82 66.18 0 59 0H13C5.82 0 0 5.82 0 13V59C0 66.18 5.82 72 13 72Z" fill="white"/>
<path d="M62.2259 32.8326C62.2259 21.1026 50.4659 11.5586 36.0119 11.5586C21.5579 11.5586 9.7959 21.1026 9.7959 32.8326C9.7959 43.3486 19.1219 52.1566 31.7199 53.8226C32.5739 54.0066 33.7359 54.3866 34.0299 55.1146C34.2939 55.7766 34.2019 56.8146 34.1139 57.4846C34.1139 57.4846 33.8079 59.3346 33.7399 59.7286C33.6259 60.3906 33.2139 62.3206 36.0099 61.1426C38.8079 59.9646 51.1059 52.2526 56.6059 45.9206H56.6039C60.4059 41.7566 62.2259 37.5266 62.2259 32.8326ZM25.7499 39.8126H20.5419C19.7839 39.8126 19.1679 39.1966 19.1679 38.4366V28.0186C19.1679 27.2606 19.7839 26.6446 20.5419 26.6446C21.2999 26.6446 21.9159 27.2606 21.9159 28.0186V37.0606H25.7499C26.5079 37.0606 27.1239 37.6766 27.1239 38.4346C27.1239 39.1946 26.5079 39.8126 25.7499 39.8126ZM31.1359 38.4366C31.1359 39.1946 30.5199 39.8126 29.7619 39.8126C29.0039 39.8126 28.3879 39.1966 28.3879 38.4366V28.0186C28.3879 27.2606 29.0039 26.6446 29.7619 26.6446C30.5199 26.6446 31.1359 27.2606 31.1359 28.0186V38.4366ZM43.6759 38.4366C43.6759 39.0306 43.2999 39.5546 42.7359 39.7406C42.5939 39.7886 42.4459 39.8126 42.2999 39.8126C41.8699 39.8126 41.4599 39.6066 41.2019 39.2626L35.8639 31.9926V38.4366C35.8639 39.1946 35.2479 39.8126 34.4879 39.8126C33.7299 39.8126 33.1119 39.1966 33.1119 38.4366V28.0186C33.1119 27.4266 33.4899 26.9026 34.0519 26.7146C34.1939 26.6666 34.3399 26.6446 34.4879 26.6446C34.9159 26.6446 35.3279 26.8506 35.5859 27.1946L40.9259 34.4646V28.0186C40.9259 27.2606 41.5439 26.6446 42.3019 26.6446C43.0599 26.6446 43.6759 27.2606 43.6759 28.0186V38.4366ZM52.1039 31.8526C52.8619 31.8526 53.4799 32.4686 53.4799 33.2286C53.4799 33.9866 52.8639 34.6026 52.1039 34.6026H48.2699V37.0626H52.1039C52.8619 37.0626 53.4799 37.6786 53.4799 38.4366C53.4799 39.1946 52.8619 39.8126 52.1039 39.8126H46.8959C46.1399 39.8126 45.5219 39.1966 45.5219 38.4366V33.2306V33.2266V28.0246C45.5219 28.0226 45.5219 28.0226 45.5219 28.0206C45.5219 27.2626 46.1379 26.6466 46.8959 26.6466H52.1039C52.8619 26.6466 53.4799 27.2626 53.4799 28.0206C53.4799 28.7786 52.8639 29.3946 52.1039 29.3946H48.2699V31.8546L52.1039 31.8526Z" fill="#00C300"/>
</svg>
