<svg width="24" height="24" viewBox="0 0 24 24" fill="none" xmlns="http://www.w3.org/2000/svg">
<g clip-path="url(#clip0_804_1017)">
<path d="M7.03004 0.0841998C5.75324 0.14444 4.88132 0.3482 4.11908 0.64772C3.3302 0.95516 2.66156 1.36772 1.99628 2.0354C1.331 2.70308 0.921318 3.3722 0.616038 4.16228C0.320598 4.9262 0.120438 5.79884 0.0640384 7.07636C0.00763843 8.35388 -0.00484158 8.76452 0.00139842 12.0232C0.00763842 15.282 0.0220384 15.6904 0.0839584 16.9706C0.144918 18.2472 0.347958 19.1188 0.647478 19.8813C0.955398 20.6702 1.36748 21.3386 2.0354 22.0041C2.70332 22.6696 3.37196 23.0784 4.16396 23.3841C4.92716 23.6791 5.80004 23.8802 7.07732 23.9361C8.3546 23.992 8.76572 24.005 12.0235 23.9988C15.2812 23.9925 15.6914 23.9781 16.9713 23.9174C18.2512 23.8567 19.1184 23.6522 19.8811 23.3541C20.67 23.0455 21.3388 22.6341 22.0039 21.966C22.6689 21.2978 23.0784 20.6282 23.3834 19.8376C23.6791 19.0744 23.88 18.2016 23.9354 16.9252C23.9913 15.6444 24.0045 15.2354 23.9983 11.9772C23.992 8.71892 23.9774 8.31044 23.9167 7.03076C23.856 5.75108 23.6527 4.88204 23.3534 4.11908C23.045 3.3302 22.6334 2.66228 21.9657 1.99628C21.298 1.33028 20.628 0.92108 19.8376 0.61676C19.074 0.32132 18.2016 0.11996 16.9243 0.0647598C15.647 0.00955979 15.2359 -0.00460021 11.9769 0.00163979C8.71796 0.00787979 8.30996 0.0217998 7.03004 0.0841998ZM7.1702 21.7773C6.0002 21.7264 5.36492 21.532 4.94156 21.3693C4.38092 21.1533 3.98156 20.8922 3.55964 20.4744C3.13772 20.0565 2.87852 19.6557 2.65964 19.0963C2.49524 18.6729 2.29724 18.0384 2.24252 16.8684C2.183 15.6038 2.17052 15.2241 2.16356 12.0204C2.1566 8.8166 2.16884 8.4374 2.22428 7.17236C2.2742 6.00332 2.4698 5.36732 2.63228 4.9442C2.84828 4.38284 3.10844 3.9842 3.52724 3.56252C3.94604 3.14084 4.34564 2.88116 4.90556 2.66228C5.32844 2.49716 5.963 2.30084 7.13252 2.24516C8.39804 2.18516 8.77724 2.17316 11.9805 2.1662C15.1838 2.15924 15.564 2.17124 16.83 2.22692C17.999 2.2778 18.6352 2.47148 19.0579 2.63492C19.6188 2.85092 20.0179 3.11036 20.4396 3.52988C20.8612 3.9494 21.1212 4.34756 21.34 4.90868C21.5054 5.33036 21.7017 5.96468 21.7569 7.13492C21.8172 8.40044 21.8308 8.77988 21.8366 11.9829C21.8424 15.186 21.8311 15.5664 21.7756 16.8309C21.7245 18.0009 21.5306 18.6364 21.3676 19.0603C21.1516 19.6207 20.8912 20.0203 20.4722 20.4417C20.0532 20.8632 19.654 21.1228 19.0939 21.3417C18.6715 21.5066 18.0362 21.7034 16.8676 21.7591C15.6021 21.8186 15.2229 21.8311 12.0184 21.838C8.81396 21.845 8.43596 21.832 7.17044 21.7773M16.9528 5.58668C16.9533 5.87151 17.0382 6.14979 17.1969 6.38634C17.3555 6.6229 17.5808 6.80709 17.8441 6.91563C18.1074 7.02416 18.397 7.05217 18.6763 6.9961C18.9555 6.94004 19.2119 6.80241 19.4129 6.60064C19.614 6.39887 19.7506 6.14202 19.8057 5.86256C19.8607 5.5831 19.8317 5.2936 19.7222 5.03067C19.6127 4.76773 19.4276 4.54317 19.1905 4.3854C18.9534 4.22762 18.6748 4.14371 18.39 4.14428C18.0081 4.14504 17.6422 4.29742 17.3727 4.56791C17.1032 4.8384 16.9522 5.20485 16.9528 5.58668ZM5.83844 12.0122C5.84516 15.4154 8.609 18.168 12.0115 18.1615C15.414 18.155 18.1684 15.3914 18.162 11.9882C18.1555 8.585 15.3909 5.83172 11.988 5.83844C8.585 5.84516 5.83196 8.60948 5.83844 12.0122ZM7.99988 12.0079C7.99831 11.2167 8.23138 10.4429 8.66962 9.78423C9.10785 9.12555 9.73156 8.61162 10.4619 8.30741C11.1922 8.00321 11.9963 7.9224 12.7726 8.07521C13.5488 8.22802 14.2623 8.60758 14.8228 9.16589C15.3834 9.7242 15.7657 10.4362 15.9216 11.2118C16.0775 11.9875 15.9999 12.7919 15.6986 13.5234C15.3973 14.2549 14.8858 14.8807 14.2289 15.3215C13.5719 15.7623 12.799 15.9985 12.0079 16C11.4826 16.0011 10.9622 15.8988 10.4764 15.6987C9.9907 15.4987 9.54912 15.2049 9.17693 14.8342C8.80474 14.4635 8.50923 14.0231 8.30727 13.5381C8.10531 13.0532 8.00085 12.5332 7.99988 12.0079Z" fill="white"/>
</g>
<defs>
<clipPath id="clip0_804_1017">
<rect width="24" height="24" fill="white"/>
</clipPath>
</defs>
</svg>
